<svg width="207" height="40" viewBox="0 0 207 40" fill="none" xmlns="http://www.w3.org/2000/svg">
<path d="M21.76 32C21.4667 31.04 21.1333 30.0533 20.76 29.04C20.4133 28.0267 20.0667 27.0133 19.72 26H8.92C8.57333 27.0133 8.21333 28.0267 7.84 29.04C7.49333 30.0533 7.17333 31.04 6.88 32H0.4C1.44 29.0133 2.42667 26.2533 3.36 23.72C4.29333 21.1867 5.2 18.8 6.08 16.56C6.98667 14.32 7.86667 12.2 8.72 10.2C9.6 8.17333 10.5067 6.2 11.44 4.28H17.4C18.3067 6.2 19.2 8.17333 20.08 10.2C20.96 12.2 21.84 14.32 22.72 16.56C23.6267 18.8 24.5467 21.1867 25.48 23.72C26.4133 26.2533 27.4 29.0133 28.44 32H21.76ZM14.28 10.56C14.1467 10.96 13.9467 11.5067 13.68 12.2C13.4133 12.8933 13.1067 13.6933 12.76 14.6C12.4133 15.5067 12.0267 16.5067 11.6 17.6C11.2 18.6933 10.7867 19.84 10.36 21.04H18.24C17.8133 19.84 17.4 18.6933 17 17.6C16.6 16.5067 16.2133 15.5067 15.84 14.6C15.4933 13.6933 15.1867 12.8933 14.92 12.2C14.6533 11.5067 14.44 10.96 14.28 10.56ZM31.6281 11.68C32.6415 11.3867 33.9481 11.12 35.5481 10.88C37.1481 10.6133 38.8281 10.48 40.5881 10.48C42.3748 10.48 43.8548 10.72 45.0281 11.2C46.2281 11.6533 47.1748 12.3067 47.8681 13.16C48.5615 14.0133 49.0548 15.0267 49.3481 16.2C49.6415 17.3733 49.7881 18.68 49.7881 20.12V32H43.8281V20.84C43.8281 18.92 43.5748 17.56 43.0681 16.76C42.5615 15.96 41.6148 15.56 40.2281 15.56C39.8015 15.56 39.3481 15.5867 38.8681 15.64C38.3881 15.6667 37.9615 15.7067 37.5881 15.76V32H31.6281V11.68ZM61.1428 32H55.1828V10.96H61.1428V32ZM61.7028 4.88C61.7028 5.97333 61.3428 6.84 60.6228 7.48C59.9295 8.09333 59.1028 8.4 58.1428 8.4C57.1828 8.4 56.3428 8.09333 55.6228 7.48C54.9295 6.84 54.5828 5.97333 54.5828 4.88C54.5828 3.78667 54.9295 2.93333 55.6228 2.32C56.3428 1.68 57.1828 1.36 58.1428 1.36C59.1028 1.36 59.9295 1.68 60.6228 2.32C61.3428 2.93333 61.7028 3.78667 61.7028 4.88ZM78.3053 20.84C78.3053 18.92 78.052 17.56 77.5453 16.76C77.0653 15.96 76.2253 15.56 75.0253 15.56C74.652 15.56 74.2653 15.5867 73.8653 15.64C73.4653 15.6667 73.0786 15.7067 72.7053 15.76V32H66.7453V11.68C67.252 11.5467 67.8386 11.4133 68.5053 11.28C69.1986 11.12 69.9186 10.9867 70.6653 10.88C71.4386 10.7467 72.2253 10.6533 73.0253 10.6C73.8253 10.52 74.612 10.48 75.3853 10.48C76.9053 10.48 78.132 10.68 79.0653 11.08C80.0253 11.4533 80.812 11.9067 81.4253 12.44C82.2786 11.8267 83.252 11.3467 84.3453 11C85.4653 10.6533 86.492 10.48 87.4253 10.48C89.1053 10.48 90.4786 10.72 91.5453 11.2C92.6386 11.6533 93.5053 12.3067 94.1453 13.16C94.7853 14.0133 95.2253 15.0267 95.4653 16.2C95.7053 17.3733 95.8253 18.68 95.8253 20.12V32H89.8653V20.84C89.8653 18.92 89.612 17.56 89.1053 16.76C88.6253 15.96 87.7853 15.56 86.5853 15.56C86.2653 15.56 85.812 15.64 85.2253 15.8C84.6653 15.96 84.1986 16.16 83.8253 16.4C84.012 17.0133 84.132 17.6667 84.1853 18.36C84.2386 19.0267 84.2653 19.7467 84.2653 20.52V32H78.3053V20.84ZM100.238 21.64C100.238 19.7733 100.518 18.1467 101.077 16.76C101.664 15.3467 102.424 14.1733 103.358 13.24C104.291 12.3067 105.358 11.6 106.558 11.12C107.784 10.64 109.038 10.4 110.318 10.4C113.304 10.4 115.664 11.32 117.398 13.16C119.131 14.9733 119.998 17.6533 119.998 21.2C119.998 21.5467 119.984 21.9333 119.958 22.36C119.931 22.76 119.904 23.12 119.878 23.44H106.358C106.491 24.6667 107.064 25.64 108.078 26.36C109.091 27.08 110.451 27.44 112.158 27.44C113.251 27.44 114.318 27.3467 115.358 27.16C116.424 26.9467 117.291 26.6933 117.958 26.4L118.758 31.24C118.438 31.4 118.011 31.56 117.478 31.72C116.944 31.88 116.344 32.0133 115.678 32.12C115.038 32.2533 114.344 32.36 113.598 32.44C112.851 32.52 112.104 32.56 111.358 32.56C109.464 32.56 107.811 32.28 106.398 31.72C105.011 31.16 103.851 30.4 102.918 29.44C102.011 28.4533 101.331 27.2933 100.878 25.96C100.451 24.6267 100.238 23.1867 100.238 21.64ZM114.238 19.36C114.211 18.8533 114.118 18.36 113.958 17.88C113.824 17.4 113.598 16.9733 113.278 16.6C112.984 16.2267 112.598 15.92 112.118 15.68C111.664 15.44 111.091 15.32 110.398 15.32C109.731 15.32 109.158 15.44 108.678 15.68C108.198 15.8933 107.798 16.1867 107.478 16.56C107.158 16.9333 106.904 17.3733 106.718 17.88C106.558 18.36 106.438 18.8533 106.358 19.36H114.238ZM134.237 32.36C132.717 32.36 131.197 32.3067 129.677 32.2C128.184 32.12 126.624 31.9067 124.997 31.56V4.68C126.277 4.44 127.677 4.26667 129.197 4.16C130.717 4.02667 132.13 3.96 133.437 3.96C135.197 3.96 136.81 4.09333 138.277 4.36C139.77 4.6 141.05 5.02667 142.117 5.64C143.184 6.25333 144.01 7.06667 144.597 8.08C145.21 9.06666 145.517 10.2933 145.517 11.76C145.517 13.9733 144.45 15.72 142.317 17C144.077 17.6667 145.277 18.5733 145.917 19.72C146.557 20.8667 146.877 22.16 146.877 23.6C146.877 26.5067 145.81 28.6933 143.677 30.16C141.57 31.6267 138.424 32.36 134.237 32.36ZM131.077 19.92V27.08C131.53 27.1333 132.024 27.1733 132.557 27.2C133.09 27.2267 133.677 27.24 134.317 27.24C136.184 27.24 137.69 26.9733 138.837 26.44C139.984 25.9067 140.557 24.92 140.557 23.48C140.557 22.2 140.077 21.2933 139.117 20.76C138.157 20.2 136.784 19.92 134.997 19.92H131.077ZM131.077 15.16H134.117C136.037 15.16 137.41 14.92 138.237 14.44C139.064 13.9333 139.477 13.1333 139.477 12.04C139.477 10.92 139.05 10.1333 138.197 9.68C137.344 9.22667 136.09 9 134.437 9C133.904 9 133.33 9.01333 132.717 9.04C132.104 9.04 131.557 9.06667 131.077 9.12V15.16ZM159.872 32.4C158.139 32.3733 156.725 32.1867 155.632 31.84C154.565 31.4933 153.712 31.0133 153.072 30.4C152.459 29.76 152.032 29 151.792 28.12C151.579 27.2133 151.472 26.2 151.472 25.08V1.92L157.432 0.959999V23.88C157.432 24.4133 157.472 24.8933 157.552 25.32C157.632 25.7467 157.779 26.1067 157.992 26.4C158.232 26.6933 158.565 26.9333 158.992 27.12C159.419 27.3067 159.992 27.4267 160.712 27.48L159.872 32.4ZM183.808 21.44C183.808 23.0933 183.568 24.6133 183.088 26C182.608 27.36 181.915 28.5333 181.008 29.52C180.101 30.48 179.008 31.2267 177.728 31.76C176.475 32.2933 175.061 32.56 173.488 32.56C171.941 32.56 170.528 32.2933 169.248 31.76C167.995 31.2267 166.915 30.48 166.008 29.52C165.101 28.5333 164.395 27.36 163.888 26C163.381 24.6133 163.128 23.0933 163.128 21.44C163.128 19.7867 163.381 18.28 163.888 16.92C164.421 15.56 165.141 14.4 166.048 13.44C166.981 12.48 168.075 11.7333 169.328 11.2C170.608 10.6667 171.995 10.4 173.488 10.4C175.008 10.4 176.395 10.6667 177.648 11.2C178.928 11.7333 180.021 12.48 180.928 13.44C181.835 14.4 182.541 15.56 183.048 16.92C183.555 18.28 183.808 19.7867 183.808 21.44ZM177.728 21.44C177.728 19.6 177.355 18.16 176.608 17.12C175.888 16.0533 174.848 15.52 173.488 15.52C172.128 15.52 171.075 16.0533 170.328 17.12C169.581 18.16 169.208 19.6 169.208 21.44C169.208 23.28 169.581 24.7467 170.328 25.84C171.075 26.9067 172.128 27.44 173.488 27.44C174.848 27.44 175.888 26.9067 176.608 25.84C177.355 24.7467 177.728 23.28 177.728 21.44ZM193.505 20.8C193.505 24.1333 194.852 25.8 197.545 25.8C198.158 25.8 198.732 25.72 199.265 25.56C199.798 25.4 200.252 25.2133 200.625 25V15.48C200.332 15.4267 199.985 15.3867 199.585 15.36C199.185 15.3067 198.718 15.28 198.185 15.28C196.612 15.28 195.438 15.8 194.665 16.84C193.892 17.88 193.505 19.2 193.505 20.8ZM206.585 29.36C206.585 32.8 205.705 35.3467 203.945 37C202.212 38.68 199.518 39.52 195.865 39.52C194.585 39.52 193.305 39.4 192.025 39.16C190.745 38.9467 189.558 38.6533 188.465 38.28L189.505 33.28C190.438 33.6533 191.412 33.9467 192.425 34.16C193.465 34.3733 194.638 34.48 195.945 34.48C197.652 34.48 198.852 34.1067 199.545 33.36C200.265 32.6133 200.625 31.6533 200.625 30.48V29.72C199.985 30.0133 199.318 30.24 198.625 30.4C197.958 30.5333 197.225 30.6 196.425 30.6C193.518 30.6 191.292 29.7467 189.745 28.04C188.198 26.3067 187.425 23.8933 187.425 20.8C187.425 19.2533 187.665 17.8533 188.145 16.6C188.625 15.32 189.318 14.2267 190.225 13.32C191.158 12.4133 192.292 11.72 193.625 11.24C194.958 10.7333 196.465 10.48 198.145 10.48C198.865 10.48 199.598 10.52 200.345 10.6C201.118 10.6533 201.878 10.7333 202.625 10.84C203.372 10.9467 204.078 11.08 204.745 11.24C205.438 11.3733 206.052 11.52 206.585 11.68V29.36Z" fill="url(#paint0_linear_1_4)"/>
<defs>
<linearGradient id="paint0_linear_1_4" x1="65" y1="17" x2="210" y2="80" gradientUnits="userSpaceOnUse">
<stop stop-color="#2D9DFC"/>
<stop offset="0.682292" stop-color="#266ED0" stop-opacity="0.825269"/>
<stop offset="1" stop-color="#2358BC" stop-opacity="0.743906"/>
</linearGradient>
</defs>
</svg>
